<mxfile host="app.diagrams.net" agent="Mozilla/5.0 (Windows NT 10.0; Win64; x64) AppleWebKit/537.36 (KHTML, like Gecko) Chrome/137.0.0.0 Safari/537.36 Edg/137.0.0.0" version="27.1.6">
  <diagram name="Page-1" id="t_Y_Lva1_hbPHLvscOlu">
    <mxGraphModel dx="2633" dy="1028" grid="1" gridSize="10" guides="1" tooltips="1" connect="1" arrows="1" fold="1" page="1" pageScale="1" pageWidth="1100" pageHeight="850" math="0" shadow="0">
      <root>
        <mxCell id="0" />
        <mxCell id="1" parent="0" />
        <mxCell id="H1lNBIGoyM9w_siBjwub-1" value="" style="shape=image;verticalLabelPosition=bottom;labelBackgroundColor=default;verticalAlign=top;imageAspect=0;image=data:image/png,iVBORw0KGgoAAAANSUhEUgAAAdwAAAGLCAYAAABtKCO6AAAAAXNSR0IArs4c6QAAAARnQU1BAACxjwv8YQUAAAAJcEhZcwAADsEAAA7BAbiRa+0AACa+SURBVHhe7d29jxzHwefx4gkwnOjFwSWSpccB+RhYkXjgwEeaG9wTiSKVMJAoZjxLpNaBIeptAQeEJArKaFFcw8nyzaeMIhUIhskVbRzgJ1hKPAfGQasNTBrGI9kK/CQU9Qfo5tfcImtb3dM1M13V1V3fD9HY3Z6e6mZNdf+mqrtntnwzYgAAQFD/beMnAAAIiMAFACACAhcAgAgIXAAAIiBwAQCIgMAFACACAhf9trJgtmzZcm+aXzArmn9zycy780fT/MKSubnxnHuPzZuF4gl35rvL3y2rPH80zR87VlP+TbM0v3n+li0HzYLm2RUV5c2bpWJjNhTbu7E+q5g3Wu7/3Pm/3N1OO1/Pr9q2TQUDSAWBiwF4wVz55hvzzTc3zKntp82+u8lk54+mG1fM9tMvmRPnRmG1b81sv3KjmH/jygGzts8NP4+yRtPq//rvm+fZ8le2mqOr+vuU2T36d+qGHr9glo+9YMzpD0eBOgrkt0+PnnrMHN16p2Rfp/eVAvmu0rZNWjCAKAhcDMuaMbvntm388W1f/d+L5too7Jb33gmlrXuPmmMvXDMXL1f0ChvKmsjeRXNq92nz9vwh89K1UUAu7914YBLuGwAAfUPgYgBGQVQMp24zL416e8fu9vDs/NG07W0z6m6aQ+baxmObXVu/sfGbR1kazv3P0ryN8utzdNTzHfVyr127ZnafWjSTx+0opK+ol/y2WbKbeldp2xhRBpJE4GIAnCHV1WUnzO7Mv3Fq950//3Wr2Ta38XvJvZ7s+LLuDNuumqP/cm+eW/5Y2+aKYeYDT0055Lt32VwZ9cZf2vdS6W1DadumLB5AWAQuBm/r0ffMqd3XinOgN546YHaf3mcWVu50A2+uLJh9p2cIwRG3/NADvnsXdW4YQB8RuMiALmS6MuoHnjZvX37KvHflBbO2b1sxBLtt35p54YpPr9Adtt1i5v/3f23MF6f8mcZzx61jw9aj5j3bo76r9DzGlIEk8W1BAABEEKSHq3fZAADgniCBq04zoQsAwD3BzuESugAA3BP0oilCFwCAO4JfpUzoAgAQ6CplAhYAgM2i3RZkQzjS6gAASErwIWWXwpbeLwAgR1EDVwhdAECOogeuELoAgNx0ErhC6AIActJZ4AoXUAEActFp4AIAkAsCFwCACAhcAAAiIHABAIiAwAUAIAICFwCACAhcAAAiIHABAIiAwAUAIAICFwCACAhcAAAiIHABAIiAwAUAIAICFwCACAhcAAAimDpw9eXxdgIAAONNHbj68ng7AQCA8RhSBgAgAoaUAaBl7vFx3DFy2seqjFuXO3/SctEehpQBoGXu8VFT6JBT+bHWhekxpAwAgVUFoQ3J0Nz1xFonqhG4AJAg32Bs6tG65RC23WolcPWClycgNePaZdVjk7bjuuXL8yctF/2k19mdQoYdQdoPMwWubUiiF9yd3MeAlLVxMLRlNLX5NtaFfrDHwqbX2+c4qWXK0zhNj6MbUweufUHrGpSdzwuPFNS1Q82var9186u4y9LmUaXcLiZpX6Jly9M4TY+jG5zDxeDVHdzGHfTaPGC5ZXEghKX2Z0PY/X0aszw3RUP7/1hTB649cNiGUjdxgEHXxrVB207Rb317DdUm7eT+PY1pn5eqIefGTD1c20jGTUCK7AHattNxB2w9VjUhDXotUj/WxNjGIbTJPryWs2BIGdlyd+xxoavHqiZ0L9UDtLbLnUJvoy0/1frw0edt90XgJk6NsErdfGDobNsvH6BT2ie0Xe40TtPjvnzWlaryazlUW0b/yVb/l3UVl0uFtq2q3qjL6bj11ma9lp/H6xOW6hfDksv+QuAmjoN5e8bV5az1ap/P6xPeuNcR/ZLba8eQco9wYGmX6lJ12ka92rJ4fcJSHbuo8/7K8bUjcHuCA8vsqupP89qqV16fsMr7APtEf+X62jGknDjVG4Bv43jSTzlnQeuBW4fAnQ71htyV9wH2if7K/bWbekhZFYewqGNgc0+WfaLfcn+jNHXgquLU+NkBwlC98i4euId9An0300VTavzsAO3jwAJsxj6BIeAq5cRwYAE2Y5/AUBC4ieHAAmzGPoGhaDVw9U60PAFAmwhg9NXUgVsXptoZ3InQBQBghsAth6l+1zwAAPBtMw0p29ClFwsghHHHF3c+xyD0wczncO3Qsdidw53o9QKYho4fYt/YA33X2kVTNnjLEwBMyz2GELrou9YCFwBicsOYN/foAwIXQLLsqSkhVNF3BC4AABEQuACSpV6tnTiHi74jcAEAiIDABQAgAgIXQPIYTsYQELgAkmTP22qy53GBPtsyasRRWrHdaTAZ6g3AEDBKQeAmj3pDbqravDuv6XGkLefXiiHlxHEQQe6aDtCELfqCwAWQLMIWQ0LgAkgSYYuhIXABJIewxRBx0RSAmWn/7iuOS3HlnAVBAreqQusqmSAGYNngrjsmND2O9OV8zA8ypKzKtDtGk0mWBTBc9kBcdzDO+UCNYQh2DpfQBeCrKUwJWwxB0IumCF0ATSYNW4IXfRX8KmVCF0CdprAVAhZDEeyiKXzbNFVNXQLdIOjD8HmTNVTRbgsS34q2IUOD96uzWRtw188XtoF6tJqe38Y2NomxjlzlXLdRP/hClazK9jHJsgAApC5q4AqhCwDIUfTAFUIXAJCbTgJXJg1dAAD6rLPAFYIUAJCLTgMXAIBcRL0tyJeGmun93uFTF5zjxtCMa/Mxjg8cg8LJuW4J3MT51AX1hSFpas8x2jv7VDg51y1DygAAREDgAmiVejBlVfMm1UYZQJcIXABBtTGEmPMwJIaDwAUQDGEL3EPgAgiCsAU2I3ABtI6wBb6N24ISp7rwQX1hFr7trI+m2Tc4BoWTc90SuInzqQvqC6lQW5RZ2mNTe47R3tmnwsm5bhlSBtCKNg6kKgMYKgIXwMzcsJ02dOlVYugIXAAzaatnS9hi6AhcAFMjbAF/BC4ALwpG16RBWX6+pTLqHgOGhMAF0IhABGZH4AIYq6onO03vlmFj5I7ABVCrLijbDk/CGDkgcAHUIgiB9hC4AGaiXnDVZOl3G9zufCA3BC6AmShMqyYAmxG4AIJze73u70BOCFwAQZV7vfSAkSsCFwCACAhcAF7a6JXSs0XO+D7cxPme66K+MBQ+bT50e+cYFE7OdUsPtwfUOMdNwNBUtXM7AX1F4AIAEAGBCwBABJzDTZxPXVBfGJKm9qzHY2CfCiPn4xWBmzifuqC+MCRN7TlGe2efCifnuh1E4B4/ftx88skn5v777zcPPPCAeeWVV8xnn31WPPbMM8+Yl19+2Rw8eNB8/vnnxbzHHnvMvPPOO8XPv/3tb+aHP/yh+fOf/2y++uorMzc3t+n56+vrxc833njDXL9+3ayurpojR44UZT700EPm1q1bd58Tgk9dcHDAkDS15xjtnX0qnJzrdhCBe/LkSTM/P2927ty5MecOheJ9991XzFfwXrp0qZj/xRdfmEcffbSYp98VnApWhakNTndZhfmrr75a/K1lxF3ftWvXzO7du4vf2+ZTFxwcMCRN7TlGe2efCifnuh3ERVNff/21ef7558327dvNnj17zJdfflnMV6/2008/NU8++WTxt6UeqgJWy6t33ETLX7hwwdy+fbv42wa2yjh8+LA5f/58sQ0AANQZROBqKPncuXNmbW3NXL161Tz88MNFACokn3322aIH7Hr//feLnqyWV0B/9NFHG49U0zC1wvvMmTPF3wpbha6Gks+ePVusn8AFAIwzmB7um2++aQ4cOFBMOtf6+uuvFyH53HPPFcvYIWLZsWOHefrpp4tlFdAaHm6i4ePHH3+8WJd6vApfuz5R6AIAUIerlBPnUxfUF4akqT3HaO/sU+HkXLd88AUAABH0sodbdVWyhoY1/4MPPiiGd+3FUO7tPBoOdm8feuutt4pzsfYWIf2uc7Jib/vRRVdaTuuqWoctT7cU/eY3vymGmsu3KOlc77R83g3ybhxD0tSeY7R39qlwcq7bwQSuAvIHP/iB2bVrVzFfy4y7nceGsJRvEVJo2uUU0rrtRxdXVa1D5Wtb3duIyts2C5/GycEBQ9LUnmO0d/apcHKu20EMKdvbgBSaujLZKt/O47JXGlfdIqT5elzUU3VvNXLXYa9Mdi++0ryqW5QAxKP9UPsxkJJBBK4CUD1TO2xsQ658O4/LhmrVLUI2jEVlvfvuu5XrUBjLxYsXi6Fo3Y6keeVblGald4TjJmBoqtq5nXxoP9Sok95E2zfGQNd6OaTsnjv90Y9+ZP75z38W51ntTmbD0g7t2p6rlM+5alndQvTggw/ePa8rmmfP4f7iF78wv/3tbyvXYYeULXfbRI/PMrzcVBfiswzQF03teZL2rtErnQqy+7fePNt9cxz2qXByrltuC5pR6G31KZ+DA4akqT37tncbtvo0OJ0KmgT7VDg51y23BQEYHJ3y0Wkg3VGgsNWwsk77MLyMLtHDnVHobfUpn3fjGJKm9jxJe1cvV6d59K1e+qk7DHywT4WTc93SwwUwOOrh2osgFbTq5fqGLRBKtoGrd1lVE4D+090BClr1cHUBZNWtgUBsUQI3pTCz26IhjaqJ0AX6T+dqdSeCrkrWbXq640BfWGJvGQS6EPUcrg26Jr7LTSrE+kNtq+VTfuhtAGJqas++7V29W93C99lnnxUf3arA5Rxu93Ku22wumpq0TN/lQzcen/JDbwMQU1N7nqS9q6er0NXHswr34XYv57qNEriTVnDbL8i05fk8L3TjSWEbgJia2rNPe9fQsXq0unBK34ltP6rVF/tUODnXbbQeripZfFbX9gvilldVtt22Kk3b0fa2lvmUH3obgJia2rNve9enwZ0/f74YUn788ceLK5V9v7mLfSqcnOs2iyFllTdO3bp8tiN040lhG4CYmtrzJO1dQ8oaTtawsjCk3L2c6zabwC2Xp3m+xm1L6MbjU37obQBiamrPPu1dQ8ovvvii2bFjx0Q9W4t9Kpyc67aTwFWFS92q23xBqtZl55XZZaoej7GtVXzKD70NQExN7dm3vWtI2T13q56uApgebrdyrttoH3yhSraTKluTOy8Euy6rvK7yiz7uMQD9oaFkffCFerr6/bXXXivO5/qELRBKMlcpu8v4LO/DlmOD1P29iV3W/Vll3GNtmGR7gSHwafM+7V1Bq28KUk9X524n+ZrM0Pt1znKu26w+2rG8I9e96FXzfYMvBG3PuAkYmqp2bidf+sICfT2ferV6nv0Oa6Ar0W8LEneVVfPbegfUFJJaR3kZd567PVK1TW1tax2f8kNvAxBTU3v2ae/26mT3M5T1BfS7d+/mHG7Hcq7bTi+assqb0OYLYtel8pp+b1K1TW1uaxWf8kNvAxBTU3uetr3r+3CfffZZArdjOddtJ0PKqmx3CkUvrJTXYedL1YsfersAxKcPwFDPF+hKFudwFapu+JYDtfyYu7y4ywLoB52zVcjaCehaZx98oUCrW/W4xybhBqm4Ieqr/NzydrW1rXV8yg+9DUBMTe3Zp71zDjddOddtNoFry7TzXO58d711y7psuaH4lB96G7Jxc8ksnFg3+lCii+tz5q25dbP21LI5unXjcVlZMvNvG/Pe6lGj2TeX5s2h9e1me/HgfrO4vLeYj+k1tedp2rsC+P333+ccbgJyrtvBDynrhdULLPZnmW0AthHo77plMVw3L6+PMnMUsEeXzeriUxtzN1v5cN0cO7ZuLt/cmDGK2gOLy2Z5eXkUtx+aGxtzkQZ9J65CVt8ctH37dq+wBUIZdODasK16N2XnuSHr/qxiy8MwbT26aPb/ZcHMz8+b+RNV0bkyitT9Zu/e/Wb9xMrGvDVz8cSCWViYN2+PHtu2MRdhaT/0mfQtQRcvXjS///3vzU9+8pPKZaomIIRsLppSWLrTuJ3KLmO5z2l6Lvrr5tJls02929VVs7r/Q3Nm1OF13Vz60Ji5UeyOsnZuFL13Itf2cO88524OIyi7T46bPv74Y/P8888XX17wzjvvVC5TNwEhdHYOdxwbbG2w4Vguzw1NPVZerup55eeI5pXLbpNP+aG3IRs6h3tolLLFCdk58z/mLprz9vzs3AEzt75mnlq+c+7WrIx6tX9ZNIvmkHMOd87sHz2+t/gd02pqzz7t3V40pYukRF/Pd+XKFfOrX/3KPPzww8W8cdinwsm5bgcfuFIuz/6tn03KzxP7XPdnKD7lh94GIKam9uzb3nX+VkGrW4Iee+yx4jzurl27Nh4dj30qnJzrNkrgqoItn9W1/YLY9dsybfnuzzruc6zyc+0yIfiUH3obgJia2vMk7V09XYWuervCF9B3L+e6zaKHKypTVK4t3/1ZZtfvPlb3XLtsCD7lh94GIKam9uzT3vW1fOrR7tmzxzz33HObvhfXB/tUODnXbTaBKyp3Ftomu23ln6H4lB96G4CYmtqzb3vXJ03pO3A1pKyrlXXx1JxusvbAPhVOznWbVeCKyvblboN9np1ntzF04/EpP/Q2ADE1tedJ2ru9eErDysKQcvdyrttogatKlrrVuS9C6BekvC4p/12nvI0xttVHyG0AYvJp803tXUPKL774otmxY8dEPVsr9H6ds5zrNtpFU3Y1dmcqr7a8TMjNqluX/b3pcfd3d14IPuWH3gYgpqb2HKO9s0+Fk3PdRv/gC1W0JlW6pi40rd8+bpWX62q7AQD91dknTaUSvFW0Pe5jVcvVPRcAgCpRAtcGaxU91kV4udtkf5a3s2qbNa+L7QXgT+dwz549W1w0pQul5OWXXy7mA13J7irlsqpQtdxtsMuVtyv0tvqUH7O+gNCa2rNPe1ew6qMc9U1BCl6FrabFxUU+2rFjk9Tt8ePHzSeffFJcWa7vM37llVeK27xEF8PpNT148KD5/PPPi3n6RDF9brZ+6rawU6dOmdOnTxdlfPXVV8XFc7pF7Pvf/37xSWTyxhtvmOvXrxefoX7kyJGizIceesjcunWrWF7rbEv2gStan8uuu26+K/S2+pQfu76AkJras097V+Dq+2/1DUH6EoMnnniiCF4Ct3uT1O3JkyeLb+/auXPnxpw7FIr33XdfMV/Ba2/7UsjqQ040T78rOBXWNlAVnu6yCuJXX321+FuPi7s+9/O42xBlSFkV7DN1pfzi2+1x57PzAf2hg6x6Jzqo2t7Mk08+6XUPLtKhUwL6xid9l7E+NcyeElCv9tNPPy1eU5d6qHqttbx6x020/IULF8zt27eLv21gq4zDhw8XH5yibWhLtIumFFhNU5eqtsG+Ceh62wBMRsGqA7R6OnbS3wRuv+j1OnfunFlbWzNXr14tRicUgApJnS5QD9ilUQ31YrW8Xu+PPvpo45FqGqZWeJ85c6b4W2Gr0NWbNY2IaP29C1wFVpc92EnY4HUnAP1iL5pCvyns3nzzTXPgwIFi0tDw66+/XoSkPiNb7BCx6INO9BnaWlYBreHhJho+1nldrUs9XoWvXZ+0+SYt6jnc8jBtHd/lUhB6W33K71N9AU2a2rNPe1fgnjhxYtP5N/Vm9LfPAZR9Kpyc6zbqfbg0YACx6EpVDQ26E0PK6FLUwM2B3r2FFmMdQN8pXDVUaKdJv6IPaBu3Bc3I3dYQ210us2odfaovoElTe/Zp79yHm66mutW5VHsvrK5Efuutt4rRCff+WHtBnL0Sue5eWvt8XTxl7+f9+9//Xiyvv917fBcWFoo2496z+93vftf89a9/vbuMLsjS/GkRuDOy2xpqm91y69bRp/oCmjS1Z5/2TuCmq6lu3XtvFb66F1YfduHeH2tfS12tPO5e2qrn22B2l3O59+zW3Qc8LYaUWxBj5+QAAExGB1v7qUT2J9Jn74UV9SzVm3Xnib19R+rupRX7fLUFez+vQlTPcedpGXuPr8tnmUkQuC1RIIaYbNn2Z9UEDE1VO7eTDx1oNfSngy8ffNEvbpgq4PRZ2O48cUO17l5asc/X6677efWpY/pdQWrnuff4lvksMwmGlGdgd/6Q2+pTF32pL8BHU3uO0d7Zp8JpqluFpO61HXcO136QiTvka8/nqvdafr6GiN0hZYWzgtmewxUNS7tDzhpSdj/L2V1mWgTulOw2htxWlS1N5fehvgBfTe3Zt72rV6sDqw64ovtyf/azn3EOt2M51y1DylOI0WDY4YHpqZek3o8umtI5OH36kIYdZx0SBGZB4E6IsAX6YdeuXcX9t4888oj54IMPZrqdA2gDgTsBwhboj/JVyu5FN0AXOIebOJ+6oL4wJE3t2ae9K2x1/6W9VUT4LOU05Fy39HABDI5CVVepKmR1RasuoNLfPmELhELgAhgcXTR1+fLlu98WpFs89LfmA10hcAEMjs7Xuj1a/dS3BwFdInA96JyDncqq5o3jW86k5QK4R1ckaxhZk+in+wEGQBe4aKqBuy1V2zXJttplm8qp+72OzzJAXzS1Z9/2rgundC+urlDW7UEaVvYNXPapcHKuWwK3QXlbmv6uo+XELjuunLrf6/gsA/RFU3v2ae9cpZyunOuWwJ3QtNtWfp5vOT7LpVxfwKSa2rMej4F9Koycj1ecw50AwQakQfuhz6Tztk888UQxrFz1eN0EhEAP15PPNlW987bPKT/f9//ou16fsoA+aGrPvu398OHDxU99y4xoSNl+pVsT9qlwcq5bAtfTrNtUfr5veT7LpVhfwLSa2rNPe+ccbrpyrluGlD103UC0/nETMDRV7dxOPhSqCtvz58+bS5cuFZOdD3SFwI1Ege17sCjTc8dNwNBUtXM7+dAnSunLx1dWVszFixeLSV8qzidNoUsE7hjuO2r7+7ShadkyfA8cACZnP2nKxSdNoWsE7hjld9Z2mpZ97ixlAGjGJ00hRVw0lTifuqC+MCRN7dm3vfNJU2nKuW4J3MT51AX1hSFpas8x2jv7VDg51y1DygAG6fr16+bq1avF78ePHy/+BrpE4AIYHL4PFykicAEMDt+HixQRuAAGh6uUkSIumkqcT11QXxiSpvbs2965SjlNOdctgZs4n7qgvjAkTe05Rntnnwon57plSBkAgAgI3MT9ceMnAKDfCFwAACIgcAEAiIDA7QFdZDBuAoamqp3bCegrArcHdEXfuAkYmqp2biegrwhcAAAiIHABAIiAwAUAIAICFwCACAhcAAAiIHABAIiALy9I3H+M6uJ/NtQF9yZiaMbt/zGODxyDwsm5bgncxPkG7iz11fXzhW2gHq2m57exjU1irCNXOdctQ8oAAERA4AIAEEHngavhhSp18wEA6KPOA1dj+VXhWjcfAIA+SmJImdAFAAxdMudwCV0AwJAlddEUoQsAGKrO78MNFaSx/lvl7f/jxs+2/Nto+n93fm3Nv2/8BFCv40PjYOmYmWvdJvnBF1L1othwS2mTgzeefx/F4x8ni/EUG3Rq20Qd+cl1m1L8fw9FznWb1JCySy+IXpiyuvkAAKQs2cAVQhcAMBRJB64QugCAIUg+cEXhWqVuPgAAqelF4AIA0HcELgAAERC4AABEQOACABABgYskff311+bw4cPmtddeM3v27DHXr1/fNE8/L126VCx7/PjxYhItd/Lkycrna5m9e/eaAwcOFMtevXq1+OnOP3TokPn5z39e/L179+6ijPX19U3L2Hlax8svv1z8VPlaj37Xdtlt0zrsfNG2aVnL/m0f/9Of/jS2TLc8LWfLUjl2nQDSROAiSWfOnDFHjhwxv/zlL80HH3xgbt26tWne2bNnzbVr18yXX35p7r//fvPZZ59tCrKq52u5N99801y8eLFYRs8Rd/57771nfv3rXxd/P/3008V65ubmNi3jznv00UeL8P3000/Njh07it+/+OIL89hjjxVlf/TRR2bfvn3F/Dq3b98uwlN+/OMfjy3TLW9xcbH4f/7hD38onvvMM88UPwGkicBFkhQwCh5RsKlX584T/a55onC9cOFCEV5S9Xz1Cp9//nmzffv2Yr6eI+58LacQL6tbZn5+3nz++efmH//4RzF/dXW1WLcC2S6jINS2VbE9Vf206sr83ve+Vzxuy3v44YeLx/Wmwv5fAKSLwEWS3DBVcL377rub5okbqg888IA5ePBg0eOTqucreM+dO2c+/vjjYr4NOTt/bW2tGLJVkJXVLaP16O9HHnnE7Nq1q+h5Pv7448XyCsWHHnqoCEytqyrIbbnqTVt1Zf7ud7/7VnkKZ9vbBpA2AhdJsuGpc7A//elPi/Op6sXZeTqP+uSTT24Kx507dxbBpDCqer5lw+n1118vfmp5DRfr/Kwmd2jaqlvGrl9Dv7bcBx98sFhegf/KK68UPVL1RBXAbjk672rZ4WCdh60q8zvf+U5leQD6I9lvC6qij3JMbXODbxPfFhQEdeQn121K8f89FDnXLT1cAAAiIHABAIiAwAUAIAICFwCACLIKXJ2sBwCgC9ldpdz2FXIpXnHHNjWjjvzkuk0p/r+HIue6zW5IWS+0XnAAAGLK8hwuoQsAiC2rIeVZQrZuvQQ3MEw9OjT2yqzH8T7L+pOmbFiyYwFAHDkHbva3BemFp5cKAAiN+3BHCF2gGvsF0B4CdwOhCwAIicB1ELoAgFAI3JJcT+YDAMIicAEAiIDABQAgAgIXAIAICFwAACIgcAEAiIDABeBNt825U9mkt9XVlSPu/EnLnVXs9SEPBC4Ab7ptzp1mCSY9t41ygL4gcAEkx4YxMCQELoDW+IZkU4+2XA7hiyHoNHC109kJQD+0td8SoshNp4GrHc5OAPrBd591g9knoJseB/qOIWUAU2kKXRvM7jRO0+NA3yUxpAygX7rcb+vWzbEEqUtiSJkdBegP7a+z9kbb3u/b2CYgtCSGlNlRgH5wgy2VN8qELfqCc7gAvNiA1U/7+yxBp+fasqYtZ5bnArElFbh259MEIB022MrTrGYppxy2HDeQui2jBtvp20N3J6naecrz2tzctssDhiblEIt9bOB40Y6c67HTwPWpeHeZtl8odiBgvBT3kfI2hdjGGOvIVc512YtzuHqBAMSV4n5nt8n9GfrgHWMdyEPntwWpMbuTlP+msQNxad9Lbb8rb1OMbUyxHtBfnZ/DdTUFbFPjb3p+GTsT8G3ufpHKPlLeDruvh8bxoX05H3eTCtwmvi+U3Rmbls35hQeqlPeJFPaRqm2SkNvFsSGcnOt2kPfh6sVkZwEmV95vUtiP3G2IcbC2gQ60LbnAnaWxs6MAwxUrbFN4k4FhGlQPVzuKdhg7ARgGwhZDMLghZe0wdgLQf4QthmKQ53ABDEdVELYdjuXyCF+EQOACABBBcoHbxjtLDQ+NmwAMR90+Pem+Pm559zGOIZjW4Hq42hkU2nWTXQZAv2k/tvvyrPv0uHI0zx47gFl0GrhqyHZqg8+OwY4DDId9I61p1uOITzk+xxigTqeBaxt4Ww3Y7ixNOwyA/ht33JgkGAlRxDK4IWXtOG7wlif7OIDhsPu21eY+Hqpc5GdwgWtpx6iaAADoQueBW+6B2gkAfOh40fRmunx80QTE1vlFU1U9UP1sc6dg5wLyVj7OaAJiS3ZI2e4UhCWAOvZNO9AHgz2HC2DY2gpb3tgjlk4D1zZ0dyrvQLx7BVCnfPyYhS2DYw5C2TJqXL1pXdPuDHXPY+cCgLhyPu5mMaRMqAIAusY5XAAAIhhU4Gqowk4AAKRkUIGroWM7EboAgJQMdkiZ87YAgJRwDhcAgAgGeQ7XxdAyACAFg+vh2vO3VeELAEBXBjmk7F48JW4AE8IAgC4M/hyuG752InQBALFledGUQhcAgJgGFbgEKQAgVVn2cAEAiI3ABQAgAgIXAIAICFwAACIgcAEAiIDABQAgAgIXgLfyp7aVP0Sm/HeTqjIsd/6k5QIpInABTMT91DbufQf8EbgAOqFeqw3tcg/WPgYMCYELoDVthWS5HMIXQ0DgApjYrOdU6cEiRwQugInYsJ01dMvaLg9IDYELwJt6pe40LiT1WHkahx4vho7ABTJSF3pNYTiNcjh3GahV/78Q/2dgHAIXyJyCJ3YYan1dBl4X/2eAwAUylmPwELboCoELZGqa4NFz3GmW4NJz2yhnEjHXBZQRuECGpg0ePcedZtVWOT4IW3Rty6gB9qYFtr3DsAMiN2rzuWJfT0POx10Cl50QGcmxzds3Gezracj5uMuQMpAJGzw54U01UkLgAhmwwZNT+BC2SE2ygRvi3XiO7/CRjq7aX47BQ9giRckGrnaWtg9QIcoEfHXR/ghbIB1JDykTuhia2O0vx+AhbJGq5M/hEroYGtpffIQwUpDsbUEckIDZVO3aOe9XhG4a1AZzfS2yvg9Xcn7x0S0bfjHbX67tnf08HTm/Fr26LUgvkj1ItSVEmYAv2h+Qj14FrhC6GBraH5CH3gWuELpIkdqPO02C9gcMXy8DVwhdpEbtx50mRfsDhq23gSvTHNSahCgT8EX7A4ar14ELpES9UzsBQBmBC7REvVM7EboAyghcIACGhgGUEbgAAERA4AIBuOdz7QQgbwQu0DIbru45XXtel+AF8kXgAi2xgWoDtswNXgD5IXCBllSFLABYBC7QItuDHTcRzECeCFygZXbouG4CkCcCF8Dsbi6ZhYUFs7S0YOYXlszNYtbob/3iWlky8/N3HpebS/Oj5ReK5y4srNydDwwRgQtgZjcvrxuzf9kcPbpsVhef2pj7bSsfrptjx9bN5bvJut0cWFw2y8vLZr/50NzYmAsMEYELBKbztkO39eii2f+XUe92ftRjPVEXmyujSN1v9u7db9ZPrGzMWzMXT6h3O2/eHj22bWMuMEQELoCZ3Vy6bLapd7u6alb3f2ju5qnj5tKHxsyNYnf02Nwoeu8sYnu49c8DhmLLN1zFAQRVd2VyF1csB1unzuEeWld+jsyZ/ctHzbaleXNoffvGrANmbn3NPDWav1V/r4x6tX9ZNIvm0L1lNp63t/i9XVwdno6cXwsCFwgsi8BNHIGbjpxfC4aUAQCIgMAFAqNnBUAIXKAlGioDgDoELtAS9WQVunYCABeBC7RIoWsnAHARuAAAREDgAgAQAYELtMg9h2vP41bNA5AfAhdomXseVwHr/m3nAcgPgQu0xIYrAFQhcIFI6NkCeSNwgYDcHi/DyUDeCFygJT7DyQw5A/kicIHI6OkCeeLr+YCOdHGRVc5Bz6EuDV20+7ZNux8RuECHhnDwASYxlMCd5v/AkDLQIe20075bBtAvBC7QMUIXyAOBCySA0AWGj8AFEkHoAkNmzP8Hz36yAtqQ6h0AAAAASUVORK5CYII=;rotation=0;" parent="1" vertex="1">
          <mxGeometry x="20" y="10" width="1060" height="590" as="geometry" />
        </mxCell>
        <mxCell id="H1lNBIGoyM9w_siBjwub-2" value="&lt;pre&gt;&lt;br&gt;&lt;/pre&gt;" style="rounded=1;whiteSpace=wrap;html=1;sketch=1;curveFitting=1;jiggle=2;" parent="1" vertex="1">
          <mxGeometry x="50" y="610" width="660" height="215" as="geometry" />
        </mxCell>
        <mxCell id="H1lNBIGoyM9w_siBjwub-3" value="&lt;pre&gt;* &#39;6 PROPERTY LINE SETBACK&lt;/pre&gt;" style="text;html=1;align=center;verticalAlign=middle;whiteSpace=wrap;rounded=0;" parent="1" vertex="1">
          <mxGeometry x="70" y="790" width="190" height="20" as="geometry" />
        </mxCell>
        <mxCell id="H1lNBIGoyM9w_siBjwub-5" value="&lt;pre&gt;* CMU WALLS ON MAIN SLAB&lt;/pre&gt;&lt;pre&gt;* CMU DIMENSIONS: 8&quot; x 8&quot; x 16&quot; &lt;/pre&gt;&lt;pre&gt;* 48&quot; VERTICAL STACK HEIGHT&lt;/pre&gt;" style="text;html=1;align=left;verticalAlign=middle;whiteSpace=wrap;rounded=0;" parent="1" vertex="1">
          <mxGeometry x="360" y="610" width="300" height="90" as="geometry" />
        </mxCell>
        <mxCell id="H1lNBIGoyM9w_siBjwub-6" value="&lt;pre&gt;&lt;font face=&quot;Lucida Console&quot;&gt;&lt;span style=&quot;font-size: 18px;&quot;&gt;&lt;b&gt;&lt;u&gt;SITE PLAN&lt;/u&gt;&lt;/b&gt;&lt;/span&gt;&lt;/font&gt;&lt;/pre&gt;" style="text;html=1;align=center;verticalAlign=middle;whiteSpace=wrap;rounded=0;" parent="1" vertex="1">
          <mxGeometry x="80" y="620" width="160" height="20" as="geometry" />
        </mxCell>
        <mxCell id="bJ2RO-Fc8eeOH-ZJkGfJ-9" value="&lt;pre&gt;&lt;font style=&quot;font-size: 11px;&quot;&gt;* &#39;12 x &#39;16 x 6&quot; MAIN SLAB (BELOW GRADE)&lt;/font&gt;&lt;/pre&gt;&lt;pre&gt;* &#39;5 x &#39;3 x 6&quot; SECONDARY SLAB (AT GRADE)&lt;/pre&gt;&lt;pre&gt;* CONCRETE WALKING PATH &lt;/pre&gt;&lt;pre&gt;  ALONG SOUTH/WEST FACES&lt;/pre&gt;&lt;pre&gt;  WITH &#39;3 x &#39;2 x 4&quot; FLAGS&lt;/pre&gt;" style="text;html=1;align=left;verticalAlign=middle;whiteSpace=wrap;rounded=0;" parent="1" vertex="1">
          <mxGeometry x="80" y="655" width="230" height="125" as="geometry" />
        </mxCell>
        <mxCell id="J20fEEgUgninko5b_CTe-1" value="&lt;u&gt;&lt;font face=&quot;Lucida Console&quot; style=&quot;font-size: 18px;&quot;&gt;CMU POOL&lt;/font&gt;&lt;/u&gt;&lt;div style=&quot;text-align: left;&quot;&gt;&lt;span style=&quot;font-size: 10px;&quot;&gt;&lt;font face=&quot;Lucida Console&quot;&gt;Cruz Wootten&lt;/font&gt;&lt;/span&gt;&lt;/div&gt;&lt;div style=&quot;text-align: left;&quot;&gt;&lt;font face=&quot;Lucida Console&quot;&gt;&lt;span style=&quot;font-size: 10px; background-color: transparent; color: light-dark(rgb(0, 0, 0), rgb(255, 255, 255));&quot;&gt;17575 Parrot Drive&amp;nbsp;&lt;/span&gt;&lt;br&gt;&lt;span style=&quot;font-size: 10px; background-color: transparent; color: light-dark(rgb(0, 0, 0), rgb(255, 255, 255));&quot;&gt;Reno, Nevada&lt;/span&gt;&lt;/font&gt;&lt;/div&gt;&lt;div style=&quot;text-align: left;&quot;&gt;&lt;span style=&quot;background-color: transparent; color: light-dark(rgb(0, 0, 0), rgb(255, 255, 255)); font-size: 10px;&quot;&gt;&lt;font face=&quot;Lucida Console&quot;&gt;775.501.4398&lt;/font&gt;&lt;/span&gt;&lt;/div&gt;" style="swimlane;whiteSpace=wrap;html=1;startSize=100;align=center;" parent="1" vertex="1">
          <mxGeometry x="890" y="640" width="200" height="200" as="geometry" />
        </mxCell>
        <mxCell id="J20fEEgUgninko5b_CTe-2" value="&lt;font style=&quot;font-size: 30px;&quot;&gt;&amp;nbsp;V1.01&lt;/font&gt;" style="text;html=1;align=left;verticalAlign=middle;whiteSpace=wrap;rounded=0;" parent="J20fEEgUgninko5b_CTe-1" vertex="1">
          <mxGeometry y="100" width="200" height="100" as="geometry" />
        </mxCell>
        <mxCell id="J20fEEgUgninko5b_CTe-3" value="Survey&amp;nbsp;" style="text;html=1;align=center;verticalAlign=middle;whiteSpace=wrap;rounded=0;" parent="J20fEEgUgninko5b_CTe-1" vertex="1">
          <mxGeometry x="-10" y="110" width="120" height="30" as="geometry" />
        </mxCell>
        <mxCell id="J20fEEgUgninko5b_CTe-5" value="" style="endArrow=none;html=1;rounded=0;exitX=0.5;exitY=1;exitDx=0;exitDy=0;" parent="J20fEEgUgninko5b_CTe-1" source="J20fEEgUgninko5b_CTe-2" edge="1">
          <mxGeometry width="50" height="50" relative="1" as="geometry">
            <mxPoint x="50" y="150" as="sourcePoint" />
            <mxPoint x="100" y="100" as="targetPoint" />
          </mxGeometry>
        </mxCell>
        <mxCell id="J20fEEgUgninko5b_CTe-4" value="&lt;div&gt;&lt;font style=&quot;font-size: 13px;&quot;&gt;Drawing&lt;/font&gt;&lt;/div&gt;&lt;div&gt;&lt;font style=&quot;font-size: 13px;&quot;&gt;Page&lt;/font&gt;&lt;/div&gt;&lt;div&gt;&lt;span style=&quot;font-size: 24px; background-color: transparent; color: light-dark(rgb(0, 0, 0), rgb(255, 255, 255));&quot;&gt;3 / X&lt;/span&gt;&lt;/div&gt;" style="text;html=1;align=center;verticalAlign=middle;whiteSpace=wrap;rounded=0;fillColor=default;" parent="1" vertex="1">
          <mxGeometry x="990" y="740" width="100" height="100" as="geometry" />
        </mxCell>
        <mxCell id="J20fEEgUgninko5b_CTe-19" value="&lt;pre&gt;* 4&quot; PERFORATED PVC DRAIN UNDER MAIN SLAB&lt;/pre&gt;&lt;pre&gt;* #4 REBAR FOR BOTH SLABS &lt;/pre&gt;&lt;pre&gt;* MAIN SLAB HAS COMPACTED FILL AND VAPOR/MOISTURE&lt;/pre&gt;&lt;pre&gt;  BARRIER INSTALLED ON TOP OF DRAINAGE TRENCH/PIPE&lt;/pre&gt;" style="text;html=1;align=left;verticalAlign=middle;whiteSpace=wrap;rounded=0;" parent="1" vertex="1">
          <mxGeometry x="360" y="710" width="330" height="80" as="geometry" />
        </mxCell>
        <mxCell id="Kj6KZ84lA7i_5e8WKMxJ-1" value="&amp;nbsp;NOT TO SCALE&amp;nbsp;" style="text;html=1;align=center;verticalAlign=middle;whiteSpace=wrap;rounded=0;" parent="1" vertex="1">
          <mxGeometry x="330" y="800" width="110" height="20" as="geometry" />
        </mxCell>
      </root>
    </mxGraphModel>
  </diagram>
</mxfile>
